<?xml version="1.0" encoding="UTF-8" standalone="no"?>
<!-- Created with Inkscape (http://www.inkscape.org/) -->

<svg
   width="210mm"
   height="297mm"
   viewBox="0 0 210 297"
   version="1.1"
   id="svg5"
   inkscape:version="1.1.2 (0a00cf5339, 2022-02-04)"
   sodipodi:docname="yormy.svg"
   xmlns:inkscape="http://www.inkscape.org/namespaces/inkscape"
   xmlns:sodipodi="http://sodipodi.sourceforge.net/DTD/sodipodi-0.dtd"
   xmlns="http://www.w3.org/2000/svg"
   xmlns:svg="http://www.w3.org/2000/svg">
  <sodipodi:namedview
     id="namedview7"
     pagecolor="#ffffff"
     bordercolor="#666666"
     borderopacity="1.0"
     inkscape:pageshadow="2"
     inkscape:pageopacity="0.0"
     inkscape:pagecheckerboard="0"
     inkscape:document-units="mm"
     showgrid="false"
     inkscape:zoom="2.7865882"
     inkscape:cx="422.02145"
     inkscape:cy="242.41113"
     inkscape:window-width="1870"
     inkscape:window-height="1016"
     inkscape:window-x="0"
     inkscape:window-y="0"
     inkscape:window-maximized="1"
     inkscape:current-layer="layer1" />
  <defs
     id="defs2">
    <clipPath
       clipPathUnits="userSpaceOnUse"
       id="clipPath861">
      <path
         d="m 2065.99,3845.83 c -9.47,0 -17.17,7.7 -17.17,17.16 0,9.47 7.7,17.16 17.17,17.16 9.46,0 17.16,-7.69 17.16,-17.16 0,-9.46 -7.7,-17.16 -17.16,-17.16 z M 1558,3337.84 c -9.46,0 -17.16,7.7 -17.16,17.17 0,9.46 7.7,17.15 17.16,17.15 9.47,0 17.16,-7.69 17.16,-17.15 0,-9.47 -7.69,-17.17 -17.16,-17.17 z m -85.1,0 c -9.47,0 -17.16,7.7 -17.16,17.17 0,9.46 7.69,17.15 17.16,17.15 9.46,0 17.16,-7.69 17.16,-17.15 0,-9.47 -7.7,-17.17 -17.16,-17.17 z m -507.99,507.99 c -9.465,0 -17.164,7.7 -17.164,17.16 0,9.47 7.699,17.16 17.164,17.16 9.465,0 17.16,-7.69 17.16,-17.16 0,-9.46 -7.695,-17.16 -17.16,-17.16 z m 0,85.11 c -9.465,0 -17.164,7.69 -17.164,17.15 0,9.47 7.699,17.17 17.164,17.17 9.465,0 17.16,-7.7 17.16,-17.17 0,-9.46 -7.695,-17.15 -17.16,-17.15 z m 507.99,542.31 c 9.46,0 17.16,-7.7 17.16,-17.17 0,-9.46 -7.7,-17.16 -17.16,-17.16 -9.47,0 -17.16,7.7 -17.16,17.16 0,9.47 7.69,17.17 17.16,17.17 z m 85.1,0 c 9.47,0 17.16,-7.7 17.16,-17.17 0,-9.46 -7.69,-17.16 -17.16,-17.16 -9.46,0 -17.16,7.7 -17.16,17.16 0,9.47 7.7,17.17 17.16,17.17 z m 507.99,-507.99 c 9.46,0 17.16,-7.7 17.16,-17.17 0,-9.46 -7.7,-17.15 -17.16,-17.15 -9.47,0 -17.17,7.69 -17.17,17.15 0,9.47 7.7,17.17 17.17,17.17 z m 0,-66.92 c -13.56,0 -25.22,-7.76 -31.15,-18.99 h -372.98 v 52.39 h 372.98 c 5.93,-11.23 17.59,-18.99 31.15,-18.99 19.49,0 35.34,15.86 35.34,35.34 0,19.49 -15.85,35.35 -35.34,35.35 -13.56,0 -25.22,-7.75 -31.14,-18.99 h -372.99 v 87.38 h -87.5 v 373.11 c 11.23,5.93 18.99,17.58 18.99,31.14 0,19.49 -15.85,35.35 -35.35,35.35 -19.48,0 -35.35,-15.86 -35.35,-35.35 0,-13.55 7.76,-25.21 18.99,-31.14 v -373.11 h -52.39 v 373.11 c 11.23,5.93 18.99,17.59 18.99,31.14 0,19.49 -15.86,35.35 -35.34,35.35 -19.5,0 -35.35,-15.86 -35.35,-35.35 0,-13.56 7.76,-25.21 18.99,-31.14 v -373.11 h -87.49 v -87.38 H 996.055 c -5.926,11.24 -17.586,18.99 -31.145,18.99 -19.488,0 -35.347,-15.86 -35.347,-35.35 0,-19.48 15.859,-35.34 35.347,-35.34 13.559,0 25.219,7.76 31.145,18.99 h 372.995 v -52.39 H 996.055 c -5.926,11.23 -17.586,18.99 -31.145,18.99 -19.488,0 -35.347,-15.86 -35.347,-35.35 0,-19.49 15.859,-35.35 35.347,-35.35 13.559,0 25.219,7.76 31.145,18.99 h 372.995 v -87.49 h 87.49 v -372.99 c -11.23,-5.92 -18.99,-17.58 -18.99,-31.14 0,-19.49 15.85,-35.35 35.35,-35.35 19.48,0 35.34,15.86 35.34,35.35 0,13.56 -7.76,25.21 -18.99,31.14 v 372.99 h 52.39 v -372.99 c -11.23,-5.93 -18.99,-17.59 -18.99,-31.14 0,-19.49 15.87,-35.35 35.35,-35.35 19.5,0 35.35,15.86 35.35,35.35 0,13.56 -7.76,25.22 -18.99,31.14 v 372.99 h 87.5 v 87.49 h 372.98 c 5.93,-11.23 17.59,-18.99 31.15,-18.99 19.49,0 35.34,15.86 35.34,35.35 0,19.49 -15.85,35.35 -35.34,35.35 z"
         id="path859" />
    </clipPath>
    <linearGradient
       x1="0"
       y1="0"
       x2="1"
       y2="0"
       gradientUnits="userSpaceOnUse"
       gradientTransform="matrix(-935.698,-995.463,-995.463,935.698,1999.84,4420.87)"
       spreadMethod="pad"
       id="linearGradient867">
      <stop
         style="stop-opacity:1;stop-color:#13ac4a"
         offset="0"
         id="stop863" />
      <stop
         style="stop-opacity:1;stop-color:#2d71c2"
         offset="1"
         id="stop865" />
    </linearGradient>
    <clipPath
       clipPathUnits="userSpaceOnUse"
       id="clipPath877">
      <path
         d="M 1246.59,4010.73 H 1118.8 v 212.05 c 0,43.86 35.56,79.42 79.42,79.42 h 212.06 -97.26 l -7.01,-5.51 c -37.51,-29.49 -59.42,-74.56 -59.42,-122.28 v 0 -163.68"
         id="path875" />
    </clipPath>
    <linearGradient
       x1="0"
       y1="0"
       x2="1"
       y2="0"
       gradientUnits="userSpaceOnUse"
       gradientTransform="matrix(-910.667,-939.732,-939.732,910.667,1697.61,4661.57)"
       spreadMethod="pad"
       id="linearGradient883">
      <stop
         style="stop-opacity:1;stop-color:#13ac4a"
         offset="0"
         id="stop879" />
      <stop
         style="stop-opacity:1;stop-color:#2d71c2"
         offset="1"
         id="stop881" />
    </linearGradient>
    <clipPath
       clipPathUnits="userSpaceOnUse"
       id="clipPath893">
      <path
         d="m 1410.28,4174.41 h -163.69 c 0,47.72 21.91,92.79 59.42,122.28 l 7.01,5.51 h 97.26 v -127.79"
         id="path891" />
    </clipPath>
    <clipPath
       clipPathUnits="userSpaceOnUse"
       id="clipPath905">
      <path
         d="m 1410.28,3508.89 h -212.06 c -43.86,0 -79.42,35.56 -79.42,79.42 v 114.8 l 5.5,-7 c 29.49,-37.52 74.56,-59.42 122.28,-59.42 v 163.67 h 0.01 v -163.68 h 163.69 v -127.79"
         id="path903" />
    </clipPath>
    <linearGradient
       x1="0"
       y1="0"
       x2="1"
       y2="0"
       gradientUnits="userSpaceOnUse"
       gradientTransform="matrix(-910.67,-939.735,-939.735,910.67,1977.5,4390.34)"
       spreadMethod="pad"
       id="linearGradient911">
      <stop
         style="stop-opacity:1;stop-color:#13ac4a"
         offset="0"
         id="stop907" />
      <stop
         style="stop-opacity:1;stop-color:#2d71c2"
         offset="1"
         id="stop909" />
    </linearGradient>
    <clipPath
       clipPathUnits="userSpaceOnUse"
       id="clipPath921">
      <path
         d="m 1118.8,3703.11 -0.01,0.01 v 97.25 h 127.79 v -0.01 H 1118.8 v -97.25"
         id="path919" />
    </clipPath>
    <linearGradient
       x1="0"
       y1="0"
       x2="1"
       y2="0"
       gradientUnits="userSpaceOnUse"
       gradientTransform="matrix(0,163.682,163.682,0,1182.69,3636.69)"
       spreadMethod="pad"
       id="linearGradient927">
      <stop
         style="stop-opacity:1;stop-color:#121a2f"
         offset="0"
         id="stop923" />
      <stop
         style="stop-opacity:1;stop-color:#182441"
         offset="1"
         id="stop925" />
    </linearGradient>
    <clipPath
       clipPathUnits="userSpaceOnUse"
       id="clipPath937">
      <path
         d="m 1246.58,3636.69 c -47.72,0 -92.79,21.9 -122.28,59.42 l -5.5,7 v 97.25 h 127.78 v -163.67"
         id="path935" />
    </clipPath>
    <clipPath
       clipPathUnits="userSpaceOnUse"
       id="clipPath949">
      <path
         d="m 1832.69,3508.89 h -114.82 l 7.01,5.51 c 37.52,29.48 59.42,74.56 59.42,122.28 h -163.66 163.68 v 163.68 h 127.79 v -212.05 c 0,-43.86 -35.56,-79.42 -79.42,-79.42"
         id="path947" />
    </clipPath>
    <linearGradient
       x1="0"
       y1="0"
       x2="1"
       y2="0"
       gradientUnits="userSpaceOnUse"
       gradientTransform="matrix(-910.669,-939.735,-939.735,910.669,2265.39,4111.35)"
       spreadMethod="pad"
       id="linearGradient955">
      <stop
         style="stop-opacity:1;stop-color:#13ac4a"
         offset="0"
         id="stop951" />
      <stop
         style="stop-opacity:1;stop-color:#2d71c2"
         offset="1"
         id="stop953" />
    </linearGradient>
    <clipPath
       clipPathUnits="userSpaceOnUse"
       id="clipPath965">
      <path
         d="m 1717.87,3508.89 h -97.25 v 127.79 h 0.02 v -127.79 h 97.23"
         id="path963" />
    </clipPath>
    <linearGradient
       x1="0"
       y1="0"
       x2="1"
       y2="0"
       gradientUnits="userSpaceOnUse"
       gradientTransform="matrix(-163.682,0,0,163.682,1784.3,3572.78)"
       spreadMethod="pad"
       id="linearGradient971">
      <stop
         style="stop-opacity:1;stop-color:#121a2f"
         offset="0"
         id="stop967" />
      <stop
         style="stop-opacity:1;stop-color:#182441"
         offset="1"
         id="stop969" />
    </linearGradient>
    <clipPath
       clipPathUnits="userSpaceOnUse"
       id="clipPath981">
      <path
         d="m 1717.87,3508.89 h -97.23 v 127.79 h 163.66 c 0,-47.72 -21.9,-92.8 -59.42,-122.28 l -7.01,-5.51"
         id="path979" />
    </clipPath>
    <clipPath
       clipPathUnits="userSpaceOnUse"
       id="clipPath993">
      <path
         d="m 1912.11,4010.73 v 0 97.23 l -5.52,7.02 c -29.48,37.51 -74.56,59.42 -122.27,59.42 v 0.01 h -163.68 v 127.79 h 212.05 c 43.86,0 79.42,-35.56 79.42,-79.42 v -212.05"
         id="path991" />
    </clipPath>
    <linearGradient
       x1="0"
       y1="0"
       x2="1"
       y2="0"
       gradientUnits="userSpaceOnUse"
       gradientTransform="matrix(-910.668,-939.733,-939.733,910.668,1985.5,4382.58)"
       spreadMethod="pad"
       id="linearGradient999">
      <stop
         style="stop-opacity:1;stop-color:#13ac4a"
         offset="0"
         id="stop995" />
      <stop
         style="stop-opacity:1;stop-color:#2d71c2"
         offset="1"
         id="stop997" />
    </linearGradient>
    <clipPath
       clipPathUnits="userSpaceOnUse"
       id="clipPath1009">
      <path
         d="m 1912.11,4010.71 h -127.8 v 163.69 h 0.01 v -163.67 h 127.79 v -0.02"
         id="path1007" />
    </clipPath>
    <linearGradient
       x1="0"
       y1="0"
       x2="1"
       y2="0"
       gradientUnits="userSpaceOnUse"
       gradientTransform="matrix(0,-163.682,-163.682,0,1848.21,4174.4)"
       spreadMethod="pad"
       id="linearGradient1015">
      <stop
         style="stop-opacity:1;stop-color:#121a2f"
         offset="0"
         id="stop1011" />
      <stop
         style="stop-opacity:1;stop-color:#182441"
         offset="1"
         id="stop1013" />
    </linearGradient>
    <clipPath
       clipPathUnits="userSpaceOnUse"
       id="clipPath1025">
      <path
         d="m 1912.11,4010.73 h -127.79 v 163.68 c 47.71,-0.01 92.79,-21.92 122.27,-59.43 l 5.52,-7.02 v -97.23"
         id="path1023" />
    </clipPath>
    <clipPath
       clipPathUnits="userSpaceOnUse"
       id="clipPath1049">
      <path
         d="m 4403.83,3782.85 c -14.67,0 -26.62,11.94 -26.62,26.61 0,14.68 11.95,26.62 26.62,26.62 14.67,0 26.62,-11.94 26.62,-26.62 0,-14.67 -11.95,-26.61 -26.62,-26.61 z m -1334.55,0 c -14.67,0 -26.61,11.94 -26.61,26.61 0,14.68 11.94,26.62 26.61,26.62 14.68,0 26.62,-11.94 26.62,-26.62 0,-14.67 -11.94,-26.61 -26.62,-26.61 z m 181.62,161.16 c -14.67,0 -26.61,11.94 -26.61,26.61 0,14.67 11.94,26.62 26.61,26.62 14.68,0 26.62,-11.95 26.62,-26.62 0,-14.67 -11.94,-26.61 -26.62,-26.61 z m 96.94,172.76 -14.61,-14.61 c -3.09,-1.26 -6.47,-1.99 -10.01,-1.99 -14.67,0 -26.61,11.95 -26.61,26.62 0,14.67 11.94,26.6 26.61,26.6 14.67,0 26.62,-11.93 26.62,-26.6 0,-3.54 -0.73,-6.92 -2,-10.02 z m 256.89,107.49 c -14.67,0 -26.61,11.94 -26.61,26.62 0,14.67 11.94,26.61 26.61,26.61 14.68,0 26.62,-11.94 26.62,-26.61 0,-14.68 -11.94,-26.62 -26.62,-26.62 z m 237.03,26.62 c 0,14.67 11.95,26.61 26.63,26.61 14.66,0 26.61,-11.94 26.61,-26.61 0,-14.68 -11.95,-26.62 -26.61,-26.62 -14.68,0 -26.63,11.94 -26.63,26.62 z m 308.13,-97.49 c 14.68,0 26.61,-11.93 26.61,-26.6 0,-14.67 -11.93,-26.62 -26.61,-26.62 -3.55,0 -6.91,0.73 -10,1.99 l -14.63,14.63 c -1.26,3.09 -1.99,6.46 -1.99,10 0,14.67 11.94,26.6 26.62,26.6 z m 45.71,-182.77 c 0,14.67 11.95,26.62 26.61,26.62 14.68,0 26.62,-11.95 26.62,-26.62 0,-14.67 -11.94,-26.61 -26.62,-26.61 -14.66,0 -26.61,11.94 -26.61,26.61 z m 208.23,-113.46 c -26.29,0 -47.7,-21.4 -47.7,-47.7 0,-5.61 1.15,-10.91 2.94,-15.92 l -240.21,-240.2 v -56.38 c -23.28,6.85 -46.83,12.88 -70.56,18.19 v 60.22 l 195,195 v 157.68 c 15.7,7.82 26.62,23.88 26.62,42.57 0,26.3 -21.41,47.7 -47.71,47.7 -26.3,0 -47.69,-21.4 -47.69,-47.7 0,-18.69 10.91,-34.75 26.61,-42.57 v -140.22 l -195,-195 v -69.04 c -24.73,4.59 -49.59,8.49 -74.55,11.71 v 90.92 l 117.77,117.77 v 253.47 l 84.43,84.43 c 5.05,-1.83 10.43,-3 16.11,-3 26.3,0 47.69,21.4 47.69,47.7 0,26.3 -21.39,47.69 -47.69,47.69 -26.3,0 -47.71,-21.39 -47.71,-47.69 0,-5 1,-9.72 2.43,-14.25 l -97.43,-97.41 v -253.47 l -117.77,-117.77 v -103.53 c -24.01,2.39 -48.09,4.17 -72.2,5.42 v 157.44 l 72.26,72.27 v 432.82 c 15.7,7.82 26.61,23.87 26.61,42.57 0,26.3 -21.4,47.7 -47.69,47.7 -26.3,0 -47.71,-21.4 -47.71,-47.7 0,-18.7 10.92,-34.75 26.62,-42.57 v -415.36 l -72.25,-72.26 v -173.24 c -12.84,0.33 -25.66,0.52 -38.49,0.55 -12.83,-0.03 -25.66,-0.22 -38.49,-0.55 v 173.24 l -72.25,72.26 v 415.36 c 15.7,7.82 26.61,23.87 26.61,42.57 0,26.3 -21.4,47.7 -47.7,47.7 -26.3,0 -47.7,-21.4 -47.7,-47.7 0,-18.7 10.92,-34.75 26.62,-42.57 v -432.82 l 72.25,-72.27 v -157.44 c -24.1,-1.25 -48.18,-3.03 -72.2,-5.42 v 103.53 l -117.77,117.77 v 253.47 l -97.43,97.42 c 1.43,4.52 2.42,9.24 2.42,14.24 0,26.3 -21.4,47.69 -47.7,47.69 -26.3,0 -47.7,-21.39 -47.7,-47.69 0,-26.3 21.4,-47.7 47.7,-47.7 5.68,0 11.06,1.17 16.12,3 l 84.42,-84.43 v -253.47 l 117.77,-117.77 v -90.92 c -24.95,-3.22 -49.81,-7.11 -74.54,-11.71 v 69.04 l -195,195 v 140.22 c 15.7,7.82 26.62,23.88 26.62,42.57 0,26.3 -21.4,47.7 -47.71,47.7 -26.29,0 -47.69,-21.4 -47.69,-47.7 0,-18.69 10.91,-34.75 26.61,-42.57 v -157.68 l 195,-195 v -60.22 c -23.73,-5.31 -47.28,-11.33 -70.57,-18.19 v 56.38 l -240.21,240.2 c 1.8,5.01 2.94,10.31 2.94,15.92 0,26.3 -21.4,47.7 -47.7,47.7 -26.3,0 -47.7,-21.4 -47.7,-47.7 0,-26.3 21.4,-47.7 47.7,-47.7 5.07,0 9.86,1.01 14.44,2.48 l 228.36,-228.36 v -52.42 c -5.25,-1.82 -10.55,-3.51 -15.76,-5.42 -23.16,-8.77 -46.11,-17.91 -68.11,-29 -22.17,-10.53 -43.4,-22.93 -63.36,-36.48 95.11,25.06 189.74,37.95 285.19,46.75 80.04,7.21 160.25,10.64 240.52,11.76 h 7.51 v 0.08 c 12.83,0.16 25.66,0.41 38.49,0.44 12.83,-0.03 25.65,-0.28 38.49,-0.44 v -0.08 h 7.51 c 80.27,-1.12 160.47,-4.55 240.52,-11.76 95.44,-8.8 190.08,-21.69 285.19,-46.75 -19.96,13.55 -41.19,25.95 -63.37,36.48 -21.98,11.09 -44.94,20.23 -68.11,29 -5.21,1.91 -10.5,3.6 -15.76,5.42 v 52.42 l 228.36,228.36 c 4.59,-1.47 9.38,-2.48 14.44,-2.48 26.3,0 47.7,21.4 47.7,47.7 0,26.3 -21.4,47.7 -47.7,47.7 z"
         id="path1047" />
    </clipPath>
    <linearGradient
       x1="0"
       y1="0"
       x2="1"
       y2="0"
       gradientUnits="userSpaceOnUse"
       gradientTransform="matrix(-1197.33,-652.116,-652.116,1197.33,4393.35,4111.41)"
       spreadMethod="pad"
       id="linearGradient1055">
      <stop
         style="stop-opacity:1;stop-color:#13ac4a"
         offset="0"
         id="stop1051" />
      <stop
         style="stop-opacity:1;stop-color:#2d71c2"
         offset="1"
         id="stop1053" />
    </linearGradient>
    <clipPath
       clipPathUnits="userSpaceOnUse"
       id="clipPath1077">
      <path
         d="m 5948.06,2166.31 c 8.45,0 15.32,-6.87 15.32,-15.32 0,-8.43 -6.87,-15.31 -15.32,-15.31 -8.43,0 -15.32,6.88 -15.32,15.31 0,8.45 6.89,15.32 15.32,15.32 z m -198.87,-570.04 c 0,255.79 77.81,478.95 182.14,526.43 4.93,-2.92 10.6,-4.71 16.73,-4.71 18.21,0 33.01,14.81 33.01,33 0,18.21 -14.8,33.01 -33.01,33.01 -17.04,0 -30.94,-13.03 -32.67,-29.62 -117.46,-55.31 -201.59,-286.18 -201.59,-558.11 0,-255.09 72.77,-474.74 181.07,-546.57 l 19.56,29.5 c -97.29,64.52 -165.24,277.15 -165.24,517.07 z"
         id="path1075" />
    </clipPath>
    <linearGradient
       x1="0"
       y1="0"
       x2="1"
       y2="0"
       gradientUnits="userSpaceOnUse"
       gradientTransform="matrix(-1064.53,-1052.43,-1052.43,1064.53,6527.35,2223.99)"
       spreadMethod="pad"
       id="linearGradient1083">
      <stop
         style="stop-opacity:1;stop-color:#13ac4a"
         offset="0"
         id="stop1079" />
      <stop
         style="stop-opacity:1;stop-color:#2d71c2"
         offset="1"
         id="stop1081" />
    </linearGradient>
    <clipPath
       clipPathUnits="userSpaceOnUse"
       id="clipPath1093">
      <path
         d="m 5964,1026.24 c -8.45,0 -15.31,6.86 -15.31,15.31 0,8.44 6.86,15.31 15.31,15.31 8.44,0 15.32,-6.87 15.32,-15.31 0,-8.45 -6.88,-15.31 -15.32,-15.31 z m 234.26,570.03 c 0,255.09 -72.77,474.74 -181.07,546.57 l -19.56,-29.49 c 97.3,-64.52 165.25,-277.16 165.25,-517.08 0,-255.78 -77.82,-478.95 -182.15,-526.43 -4.92,2.92 -10.61,4.72 -16.73,4.72 -18.2,0 -33.01,-14.82 -33.01,-33.01 0,-18.2 14.81,-33.01 33.01,-33.01 17.04,0 30.95,13.03 32.67,29.61 117.46,55.32 201.59,286.19 201.59,558.12 z"
         id="path1091" />
    </clipPath>
    <linearGradient
       x1="0"
       y1="0"
       x2="1"
       y2="0"
       gradientUnits="userSpaceOnUse"
       gradientTransform="matrix(-1064.53,-1052.43,-1052.43,1064.53,6590.23,2160.38)"
       spreadMethod="pad"
       id="linearGradient1099">
      <stop
         style="stop-opacity:1;stop-color:#13ac4a"
         offset="0"
         id="stop1095" />
      <stop
         style="stop-opacity:1;stop-color:#2d71c2"
         offset="1"
         id="stop1097" />
    </linearGradient>
    <clipPath
       clipPathUnits="userSpaceOnUse"
       id="clipPath1109">
      <path
         d="m 5458.39,1874.39 c 4.21,7.32 13.59,9.83 20.9,5.61 7.32,-4.23 9.84,-13.61 5.62,-20.92 -4.23,-7.32 -13.61,-9.84 -20.93,-5.62 -7.31,4.23 -9.82,13.62 -5.59,20.93 z m 394.22,-457.24 c -221.52,127.89 -375.88,306.85 -364.83,420.94 4.99,2.81 9.38,6.83 12.45,12.14 9.1,15.76 3.67,35.99 -12.09,45.09 -15.76,9.1 -35.99,3.68 -45.08,-12.08 -8.52,-14.76 -4.2,-33.31 9.31,-43.11 -10.82,-129.38 147.05,-317.67 382.55,-453.64 220.92,-127.55 447.52,-174.34 563.87,-116.47 l -15.77,31.69 c -104.52,-52.01 -322.63,-4.53 -530.41,115.44 z"
         id="path1107" />
    </clipPath>
    <linearGradient
       x1="0"
       y1="0"
       x2="1"
       y2="0"
       gradientUnits="userSpaceOnUse"
       gradientTransform="matrix(-1064.54,-1052.44,-1052.44,1064.54,6550.85,2200.22)"
       spreadMethod="pad"
       id="linearGradient1115">
      <stop
         style="stop-opacity:1;stop-color:#13ac4a"
         offset="0"
         id="stop1111" />
      <stop
         style="stop-opacity:1;stop-color:#2d71c2"
         offset="1"
         id="stop1113" />
    </linearGradient>
    <clipPath
       clipPathUnits="userSpaceOnUse"
       id="clipPath1125">
      <path
         d="m 6453.68,1318.15 c -4.22,-7.31 -13.61,-9.82 -20.91,-5.6 -7.31,4.22 -9.83,13.6 -5.62,20.91 4.22,7.32 13.62,9.84 20.93,5.62 7.32,-4.23 9.82,-13.61 5.6,-20.93 z m -376.54,487.9 c -220.91,127.54 -447.51,174.35 -563.86,116.48 l 15.75,-31.69 c 104.53,52 322.65,4.52 530.42,-115.44 221.51,-127.89 375.88,-306.86 364.83,-420.95 -4.99,-2.8 -9.38,-6.83 -12.45,-12.14 -9.1,-15.76 -3.68,-35.98 12.09,-45.09 15.76,-9.1 35.98,-3.68 45.08,12.08 8.53,14.76 4.2,33.31 -9.31,43.11 10.82,129.38 -147.05,317.67 -382.55,453.64 z"
         id="path1123" />
    </clipPath>
    <linearGradient
       x1="0"
       y1="0"
       x2="1"
       y2="0"
       gradientUnits="userSpaceOnUse"
       gradientTransform="matrix(-1064.53,-1052.44,-1052.44,1064.53,6566.74,2184.15)"
       spreadMethod="pad"
       id="linearGradient1131">
      <stop
         style="stop-opacity:1;stop-color:#13ac4a"
         offset="0"
         id="stop1127" />
      <stop
         style="stop-opacity:1;stop-color:#2d71c2"
         offset="1"
         id="stop1129" />
    </linearGradient>
    <clipPath
       clipPathUnits="userSpaceOnUse"
       id="clipPath1141">
      <path
         d="m 5466.34,1304.35 c -4.21,7.32 -1.7,16.69 5.61,20.92 7.31,4.22 16.7,1.71 20.92,-5.61 4.23,-7.31 1.71,-16.69 -5.61,-20.92 -7.3,-4.22 -16.69,-1.7 -20.92,5.61 z m 593.11,112.8 c -221.51,-127.91 -453.68,-172.09 -546.97,-105.48 0.07,5.72 -1.22,11.54 -4.29,16.84 -9.1,15.76 -29.33,21.18 -45.09,12.08 -15.76,-9.1 -21.18,-29.32 -12.08,-45.09 8.53,-14.75 26.76,-20.28 41.98,-13.48 106.64,-74.06 348.65,-31.49 584.14,104.47 220.92,127.55 374.76,300.39 382.81,430.1 l -35.31,2.19 c -7.24,-116.53 -157.41,-281.68 -365.19,-401.63 z"
         id="path1139" />
    </clipPath>
    <linearGradient
       x1="0"
       y1="0"
       x2="1"
       y2="0"
       gradientUnits="userSpaceOnUse"
       gradientTransform="matrix(-1064.53,-1052.44,-1052.44,1064.53,6596.93,2153.61)"
       spreadMethod="pad"
       id="linearGradient1147">
      <stop
         style="stop-opacity:1;stop-color:#13ac4a"
         offset="0"
         id="stop1143" />
      <stop
         style="stop-opacity:1;stop-color:#2d71c2"
         offset="1"
         id="stop1145" />
    </linearGradient>
    <clipPath
       clipPathUnits="userSpaceOnUse"
       id="clipPath1157">
      <path
         d="m 6445.71,1888.19 c 4.23,-7.31 1.71,-16.69 -5.6,-20.92 -7.31,-4.22 -16.7,-1.71 -20.91,5.61 -4.23,7.31 -1.72,16.7 5.59,20.93 7.32,4.21 16.7,1.69 20.92,-5.62 z m -610.79,-82.14 C 5614,1678.5 5460.16,1505.66 5452.11,1375.96 l 35.32,-2.19 c 7.23,116.52 157.4,281.67 365.18,401.63 221.52,127.9 453.69,172.09 546.98,105.48 -0.07,-5.73 1.21,-11.54 4.27,-16.85 9.11,-15.76 29.33,-21.18 45.09,-12.08 15.77,9.1 21.18,29.33 12.08,45.09 -8.51,14.75 -26.75,20.28 -41.98,13.48 -106.63,74.07 -348.64,31.49 -584.13,-104.47 z"
         id="path1155" />
    </clipPath>
    <linearGradient
       x1="0"
       y1="0"
       x2="1"
       y2="0"
       gradientUnits="userSpaceOnUse"
       gradientTransform="matrix(-1064.53,-1052.44,-1052.44,1064.53,6520.65,2230.76)"
       spreadMethod="pad"
       id="linearGradient1163">
      <stop
         style="stop-opacity:1;stop-color:#13ac4a"
         offset="0"
         id="stop1159" />
      <stop
         style="stop-opacity:1;stop-color:#2d71c2"
         offset="1"
         id="stop1161" />
    </linearGradient>
    <clipPath
       clipPathUnits="userSpaceOnUse"
       id="clipPath1185">
      <path
         d="m 4258.97,1571.42 c -13.94,0 -25.29,11.34 -25.29,25.3 0,13.95 11.35,25.3 25.29,25.3 13.96,0 25.31,-11.35 25.31,-25.3 0,-13.96 -11.35,-25.3 -25.31,-25.3 z m -560.9,-182.82 c -86.63,0 -157.12,70.48 -157.12,157.11 0,86.63 70.49,157.12 157.12,157.12 86.63,0 157.11,-70.49 157.11,-157.12 0,-86.63 -70.48,-157.11 -157.11,-157.11 z m -62.18,-320.42 c 0,-13.95 -11.36,-25.3 -25.31,-25.3 -13.95,0 -25.3,11.35 -25.3,25.3 0,13.96 11.35,25.29 25.3,25.29 13.95,0 25.31,-11.33 25.31,-25.29 z m 124.37,955.06 c 0,13.94 11.36,25.3 25.3,25.3 13.96,0 25.31,-11.36 25.31,-25.3 0,-13.96 -11.35,-25.3 -25.31,-25.3 -13.94,0 -25.3,11.34 -25.3,25.3 z m 415.34,-539.72 c 13.95,0 25.3,-11.36 25.3,-25.3 0,-13.96 -11.35,-25.3 -25.3,-25.3 -13.95,0 -25.3,11.34 -25.3,25.3 0,13.94 11.35,25.3 25.3,25.3 z m -62.73,-280.48 c 9.86,9.87 25.92,9.88 35.78,0 9.86,-9.86 9.86,-25.91 0,-35.78 -9.86,-9.86 -25.92,-9.85 -35.78,0.01 -9.87,9.87 -9.87,25.91 0,35.77 z m -156.89,-38.97 c 9.87,9.86 25.92,9.86 35.78,0 9.87,-9.86 9.87,-25.92 0,-35.78 -9.86,-9.87 -25.91,-9.87 -35.78,0 -9.86,9.86 -9.86,25.92 0,35.78 z m -206.9,-153.97 c 13.95,0 25.3,-11.338 25.3,-25.299 0,-13.942 -11.35,-25.301 -25.3,-25.301 -13.95,0 -25.3,11.359 -25.3,25.301 0,13.961 11.35,25.299 25.3,25.299 z m -393.67,85.03 c -9.87,-9.86 -25.92,-9.87 -35.78,0 -9.87,9.87 -9.86,25.91 0,35.78 9.87,9.87 25.91,9.87 35.78,0 9.86,-9.87 9.86,-25.91 0,-35.78 z m -38.97,156.89 c -9.87,-9.86 -25.93,-9.86 -35.79,0 -9.87,9.86 -9.86,25.92 0.01,35.78 9.86,9.86 25.9,9.86 35.77,0 9.86,-9.86 9.87,-25.92 0.01,-35.78 z m -179.27,217.38 c -13.95,0 -25.31,11.35 -25.31,25.3 0,13.95 11.36,25.3 25.31,25.3 13.95,0 25.29,-11.35 25.29,-25.3 0,-13.95 -11.34,-25.3 -25.29,-25.3 z m 83.37,138.5 c -13.95,0 -25.3,11.35 -25.3,25.3 0,13.96 11.35,25.3 25.3,25.3 13.95,0 25.3,-11.34 25.3,-25.3 0,-13.95 -11.35,-25.3 -25.3,-25.3 z m 62.73,280.48 c -9.86,-9.87 -25.91,-9.88 -35.77,0 -9.87,9.86 -9.87,25.91 -0.01,35.78 9.87,9.86 25.92,9.85 35.78,-0.01 9.87,-9.87 9.87,-25.91 0,-35.77 z m 156.89,38.97 c -9.86,-9.86 -25.92,-9.87 -35.78,0 -9.86,9.86 -9.86,25.92 0,35.78 9.86,9.86 25.92,9.86 35.78,0 9.87,-9.87 9.87,-25.92 0,-35.78 z m 206.91,153.97 c -13.95,0 -25.31,11.34 -25.31,25.29 0,13.95 11.36,25.31 25.31,25.31 13.95,0 25.29,-11.36 25.29,-25.31 0,-13.95 -11.34,-25.29 -25.29,-25.29 z m 393.67,-85.03 c 9.86,9.86 25.92,9.86 35.78,0 9.86,-9.87 9.85,-25.92 -0.01,-35.79 -9.86,-9.86 -25.91,-9.86 -35.77,0 -9.86,9.87 -9.87,25.92 0,35.79 z m 38.97,-156.89 c 9.87,9.86 25.92,9.86 35.78,0 9.87,-9.86 9.87,-25.92 0,-35.78 -9.87,-9.86 -25.91,-9.86 -35.78,0 -9.86,9.86 -9.87,25.92 0,35.78 z M 4258.97,1646 c -18.42,0 -34.32,-10.28 -42.77,-25.3 h -148.54 l -51.01,-51.01 h -37.83 c -3.86,45.49 -18.54,87.92 -41.49,124.72 h 67.1 l 79.88,79.88 c 16.59,-4.63 35.11,-0.66 48.14,12.37 19.22,19.22 19.22,50.49 0.01,69.7 -19.22,19.22 -50.49,19.21 -69.71,-0.01 -13.03,-13.02 -17,-31.54 -12.36,-48.14 l -65.83,-65.83 h -55.9 l 25.68,25.68 0.01,72.14 90.98,90.98 c 16.6,-4.63 35.12,-0.66 48.14,12.37 19.22,19.22 19.22,50.48 0,69.7 -19.21,19.22 -50.48,19.22 -69.69,0 -13.03,-13.03 -17.01,-31.55 -12.37,-48.15 l -105.03,-105.02 -0.01,-72.14 -26.82,-26.83 c -33.41,28.19 -73.43,48.73 -117.38,58.99 l 47.38,47.39 v 112.97 c 15.02,8.45 25.3,24.35 25.3,42.78 0,27.18 -22.12,49.29 -49.29,49.29 -27.17,0 -49.28,-22.11 -49.28,-49.29 0,-18.43 10.28,-34.33 25.3,-42.78 v -93.11 l -39.52,-39.52 v 36.32 l -51.01,51.01 v 128.67 c 15.02,8.46 25.3,24.36 25.3,42.78 0,27.19 -22.11,49.3 -49.28,49.3 -27.18,0 -49.29,-22.11 -49.29,-49.3 0,-18.42 10.28,-34.33 25.3,-42.78 V 1915.3 l 51.01,-51.02 v -37.83 c -45.49,-3.85 -87.93,-18.52 -124.72,-41.48 v 67.1 l -79.89,79.88 c 4.64,16.59 0.67,35.11 -12.36,48.13 -19.22,19.22 -50.49,19.22 -69.7,0.01 -19.22,-19.21 -19.22,-50.48 0,-69.7 13.03,-13.03 31.55,-17 48.15,-12.37 l 65.83,-65.83 v -55.89 l -25.68,25.68 -72.14,0.01 -90.98,90.98 c 4.63,16.6 0.66,35.11 -12.37,48.14 -19.22,19.22 -50.48,19.22 -69.7,0.01 -19.21,-19.22 -19.21,-50.49 0,-69.71 13.03,-13.02 31.55,-17 48.15,-12.36 l 105.03,-105.03 72.14,-0.01 26.82,-26.83 c -28.19,-33.4 -48.73,-73.42 -58.99,-117.38 l -47.38,47.38 h -112.98 c -8.45,15.02 -24.35,25.31 -42.78,25.31 -27.17,0 -49.29,-22.12 -49.29,-49.29 0,-27.18 22.12,-49.29 49.29,-49.29 18.43,0 34.33,10.29 42.79,25.31 h 93.1 l 39.52,-39.53 h -36.31 l -51.02,-51 h -128.67 c -8.45,15.02 -24.36,25.29 -42.78,25.29 -27.18,0 -49.29,-22.1 -49.29,-49.28 0,-27.17 22.11,-49.28 49.29,-49.28 18.42,0 34.33,10.28 42.78,25.3 h 148.53 l 51.02,51.01 h 37.83 c 3.85,-45.49 18.53,-87.93 41.48,-124.72 h -67.09 l -79.89,-79.88 c -16.59,4.63 -35.11,0.66 -48.14,-12.37 -19.22,-19.22 -19.22,-50.49 0,-69.7 19.22,-19.22 50.48,-19.21 69.7,0.01 13.03,13.02 17,31.54 12.36,48.14 l 65.84,65.83 h 55.89 l -25.68,-25.68 v -72.14 l -90.99,-90.99 c -16.59,4.64 -35.11,0.67 -48.14,-12.36 -19.22,-19.22 -19.22,-50.48 -0.01,-69.7 19.22,-19.22 50.49,-19.22 69.71,0 13.03,13.03 17,31.55 12.36,48.15 l 105.03,105.02 0.01,72.14 26.82,26.83 c 33.41,-28.19 73.44,-48.73 117.39,-58.99 l -47.39,-47.39 v -112.97 c -15.01,-8.45 -25.29,-24.36 -25.29,-42.78 0,-27.18 22.11,-49.29 49.28,-49.29 27.18,0 49.28,22.11 49.28,49.29 0,18.43 -10.28,34.33 -25.3,42.78 v 93.11 l 39.53,39.52 v -36.32 l 51,-51.01 v -128.68 c -15.01,-8.45 -25.29,-24.35 -25.29,-42.779 0,-27.18 22.1,-49.289 49.28,-49.289 27.18,0 49.29,22.109 49.29,49.289 0,18.429 -10.29,34.339 -25.31,42.779 v 148.54 l -51,51.02 v 37.83 c 45.49,3.86 87.92,18.53 124.71,41.48 v -67.1 l 79.89,-79.88 c -4.64,-16.59 -0.67,-35.12 12.36,-48.14 19.22,-19.21 50.49,-19.21 69.7,0 19.23,19.21 19.22,50.48 0,69.7 -13.03,13.03 -31.55,17 -48.15,12.37 l -65.83,65.83 v 55.89 l 25.68,-25.68 72.15,-0.01 90.97,-90.99 c -4.63,-16.59 -0.65,-35.1 12.37,-48.13 19.22,-19.22 50.48,-19.22 69.7,-0.01 19.22,19.22 19.22,50.49 0,69.71 -13.03,13.02 -31.55,17 -48.14,12.36 l -105.03,105.03 -72.14,0.01 -26.83,26.83 c 28.2,33.4 48.73,73.42 59,117.38 l 47.38,-47.38 h 112.97 c 8.46,-15.02 24.35,-25.31 42.78,-25.31 27.18,0 49.29,22.11 49.29,49.29 0,27.18 -22.11,49.29 -49.29,49.29 -18.43,0 -34.33,-10.29 -42.78,-25.31 h -93.11 l -39.52,39.53 h 36.32 l 51.01,51 h 128.68 c 8.45,-15.02 24.35,-25.29 42.77,-25.29 27.19,0 49.3,22.1 49.3,49.28 0,27.17 -22.11,49.28 -49.3,49.28 z"
         id="path1183" />
    </clipPath>
    <linearGradient
       x1="0"
       y1="0"
       x2="1"
       y2="0"
       gradientUnits="userSpaceOnUse"
       gradientTransform="matrix(-850.832,-876.857,-876.857,850.832,4123.49,1984.14)"
       spreadMethod="pad"
       id="linearGradient1191">
      <stop
         style="stop-opacity:1;stop-color:#13ac4a"
         offset="0"
         id="stop1187" />
      <stop
         style="stop-opacity:1;stop-color:#2d71c2"
         offset="1"
         id="stop1189" />
    </linearGradient>
    <clipPath
       clipPathUnits="userSpaceOnUse"
       id="clipPath1213">
      <path
         d="m 5808.21,3308.98 c -21.86,0 -39.62,17.77 -39.62,39.75 0,15.54 8.99,28.87 22.09,35.3 v 119.47 l 79.84,79.72 v 63.94 h -4.32 c -3.63,63.01 -40.45,123.79 -80.2,172.89 -39.75,48.98 -94.7,92.1 -127.77,145.87 -58.68,95.15 -62.53,217.33 -30.38,324.4 22.76,76.33 67.57,145.14 125.84,199.34 51.64,30.89 110.75,50.35 173.76,54.8 9.54,0.66 19.02,0.99 28.43,0.99 73.52,0 142.41,-19.94 201.38,-54.76 116.79,-69.09 195.11,-196.15 195.11,-341.58 0,-122.5 -55.53,-232.03 -142.97,-304.74 -29.57,-24.55 -54.94,-53.43 -75.75,-85.34 -20.69,-31.91 -36.82,-66.86 -47.81,-103.8 -1.4,-4.79 -5.84,-8.07 -10.87,-8.07 h -29.11 v -30.04 l 65.11,-65.11 v -66.28 c 13.1,-6.55 22.1,-19.87 22.1,-35.42 0,-21.86 -17.77,-39.63 -39.63,-39.63 -21.86,0 -39.63,17.77 -39.63,39.63 0,15.55 9.01,28.87 22.09,35.42 v 51.78 l -65.1,65.11 v 334.32 l 53.65,53.66 v 122.04 c 12.86,6.55 21.63,19.88 21.63,35.19 0,21.86 -17.77,39.63 -39.75,39.63 -21.86,0 -39.63,-17.77 -39.63,-39.63 0,-15.78 9.24,-29.46 22.68,-35.77 V 4005.1 l -53.65,-53.66 v -548.59 c 13.09,-6.43 22.09,-19.87 22.09,-35.42 0,-21.86 -17.77,-39.63 -39.63,-39.63 -21.86,0 -39.63,17.77 -39.63,39.63 0,15.55 9,28.99 22.1,35.42 v 475.06 l -85.8,85.81 v 118.18 c 12.5,6.66 21.15,19.87 21.15,35.06 0,21.86 -17.88,39.63 -39.75,39.63 -21.85,0 -39.62,-17.77 -39.62,-39.63 0,-16.01 9.47,-29.8 23.15,-36.11 v -131.63 l 85.8,-85.8 v -294.7 l -79.84,-79.84 v -104.85 c 13.09,-6.43 22.2,-19.76 22.2,-35.3 0,-21.98 -17.88,-39.75 -39.74,-39.75 m 0,61.84 c -12.15,0 -22.09,-9.94 -22.09,-22.09 0,-12.28 9.94,-22.21 22.09,-22.21 12.27,0 22.22,9.93 22.22,22.21 0,12.15 -9.95,22.09 -22.22,22.09 m 149.98,18.82 c -12.16,0 -22.09,-9.94 -22.09,-22.21 0,-12.16 9.93,-22.1 22.09,-22.1 12.16,0 22.1,9.94 22.1,22.1 0,12.27 -9.94,22.21 -22.1,22.21 m 135.25,82.76 c -12.16,0 -22.1,-9.94 -22.1,-22.09 0,-12.28 9.94,-22.1 22.1,-22.1 12.16,0 22.09,9.82 22.09,22.1 0,12.15 -9.93,22.09 -22.09,22.09 m -256.36,174.76 c -4.98,0 -9.39,3.23 -10.83,7.95 1.44,-4.72 5.86,-7.95 10.83,-7.95 m -12.56,13.63 c -22.85,72.82 -67.35,136.43 -125.27,186.45 1.13,-0.96 2.27,-1.92 3.41,-2.87 29.57,-24.55 54.94,-53.43 75.74,-85.34 19.65,-30.31 35.19,-63.35 46.12,-98.24 m 11.86,437.24 c -10.4,0 -18.82,8.42 -18.82,18.93 0,10.29 8.42,18.83 18.82,18.83 10.41,0 18.82,-8.54 18.82,-18.83 0,-10.51 -8.41,-18.93 -18.82,-18.93 m 210.07,30.28 c -10.76,0 -19.64,8.76 -19.64,19.52 0,10.75 8.88,19.52 19.64,19.52 10.75,0 19.64,-8.77 19.64,-19.52 0,-10.76 -8.89,-19.52 -19.64,-19.52 m -486.6,32.15 c 0.15,5.43 0.41,10.88 0.78,16.36 1.36,19.99 4.24,39.6 8.51,58.7 -5.39,-24.25 -8.56,-49.35 -9.29,-75.06"
         id="path1211" />
    </clipPath>
    <linearGradient
       x1="0"
       y1="0"
       x2="1"
       y2="0"
       gradientUnits="userSpaceOnUse"
       gradientTransform="matrix(-702.048,-943.932,-943.932,702.048,6390.55,4590.17)"
       spreadMethod="pad"
       id="linearGradient1219">
      <stop
         style="stop-opacity:1;stop-color:#13ac4a"
         offset="0"
         id="stop1215" />
      <stop
         style="stop-opacity:1;stop-color:#2d71c2"
         offset="1"
         id="stop1217" />
    </linearGradient>
    <clipPath
       clipPathUnits="userSpaceOnUse"
       id="clipPath1229">
      <path
         d="m 5826.25,3655.11 c -0.01,0.04 -0.02,0.08 -0.03,0.12 -0.56,1.86 -1.12,3.71 -1.7,5.56 0.58,-1.84 1.14,-3.7 1.7,-5.56 0.01,-0.04 0.02,-0.08 0.03,-0.12 m -127,192.13 c -85.47,72.7 -139.56,180.97 -139.56,301.87 0,3.8 0.06,7.58 0.16,11.35 -3.44,-124.88 50.87,-237.29 138.25,-312.23 0.39,-0.33 0.77,-0.66 1.15,-0.99 m -130.11,388.28 c 24.13,108.46 92.71,200.18 185.65,255.17 -0.37,-0.34 -0.74,-0.69 -1.1,-1.03 -92.16,-55.12 -160.5,-146.64 -184.55,-254.14"
         id="path1227" />
    </clipPath>
    <linearGradient
       x1="0"
       y1="0"
       x2="1"
       y2="0"
       gradientUnits="userSpaceOnUse"
       gradientTransform="matrix(-34.3071,818.782,818.782,34.3071,5723.39,3644.64)"
       spreadMethod="pad"
       id="linearGradient1235">
      <stop
         style="stop-opacity:1;stop-color:#121a2f"
         offset="0"
         id="stop1231" />
      <stop
         style="stop-opacity:1;stop-color:#182441"
         offset="1"
         id="stop1233" />
    </linearGradient>
    <clipPath
       clipPathUnits="userSpaceOnUse"
       id="clipPath1245">
      <path
         d="m 5866.2,3647.16 h -29.12 v 0 c -4.97,0 -9.39,3.23 -10.83,7.95 -0.01,0.04 -0.02,0.08 -0.03,0.12 -0.56,1.86 -1.12,3.72 -1.7,5.56 -10.93,34.89 -26.47,67.93 -46.12,98.24 -20.8,31.91 -46.17,60.79 -75.74,85.34 -1.14,0.95 -2.28,1.91 -3.41,2.87 -0.38,0.33 -0.76,0.66 -1.15,0.99 -87.38,74.94 -141.69,187.35 -138.25,312.23 0.73,25.71 3.9,50.81 9.29,75.06 24.05,107.5 92.39,199.02 184.55,254.14 -58.27,-54.2 -103.08,-123.01 -125.84,-199.34 -32.15,-107.07 -28.3,-229.25 30.38,-324.4 33.07,-53.77 88.02,-96.89 127.77,-145.87 39.75,-49.1 76.57,-109.88 80.2,-172.89"
         id="path1243" />
    </clipPath>
    <clipPath
       clipPathUnits="userSpaceOnUse"
       id="clipPath1269">
      <path
         d="m 1664.02,1466.27 c 9.1,9.09 9.1,23.88 0,32.98 -4.54,4.55 -10.51,6.82 -16.49,6.82 -5.97,0 -11.94,-2.27 -16.49,-6.82 -4.41,-4.4 -6.83,-10.26 -6.83,-16.49 0,-6.23 2.42,-12.09 6.83,-16.49 9.09,-9.1 23.89,-9.1 32.98,0 z"
         id="path1267" />
    </clipPath>
    <linearGradient
       x1="0"
       y1="0"
       x2="1"
       y2="0"
       gradientUnits="userSpaceOnUse"
       gradientTransform="matrix(-756.703,-742.243,-742.243,756.703,2066.73,1893.94)"
       spreadMethod="pad"
       id="linearGradient1275">
      <stop
         style="stop-opacity:1;stop-color:#13ac4a"
         offset="0"
         id="stop1271" />
      <stop
         style="stop-opacity:1;stop-color:#2d71c2"
         offset="1"
         id="stop1273" />
    </linearGradient>
    <clipPath
       clipPathUnits="userSpaceOnUse"
       id="clipPath1285">
      <path
         d="m 1515.45,999.309 c -39.04,21.831 -74.7,45.391 -107.74,70.221 l 125.94,126.06 v 143.67 l 98.77,98.75 c 4.86,-1.73 9.97,-2.74 15.09,-2.74 12.22,0 24.31,4.62 33.54,13.98 8.98,8.84 13.97,20.82 13.97,33.54 0,12.59 -4.99,24.56 -13.97,33.55 -9.21,9.27 -21.35,13.88 -33.49,13.88 -12.17,0 -24.36,-4.64 -33.6,-13.88 -8.98,-8.99 -13.96,-20.96 -13.96,-33.55 0,-5.24 1.11,-10.35 2.73,-15.21 l -110.97,-110.99 v -143.66 l -117.23,-117.22 c -28.93,23.95 -55.49,48.76 -79.68,74.45 l 119.09,119.21 v 101.76 l 292.42,292.31 c 4.99,-1.63 9.98,-2.62 15.1,-2.62 12.22,0 24.31,4.61 33.66,13.84 18.46,18.58 18.46,48.63 0,67.21 -9.29,9.23 -21.44,13.85 -33.6,13.85 -12.16,0 -24.32,-4.62 -33.61,-13.85 -13.09,-13.22 -16.71,-32.18 -11.22,-48.76 l -304.65,-304.65 v -101.75 l -105.37,-105.38 c -20.7,24.07 -39.66,48.64 -56.99,73.58 l 82.55,82.43 v 165.85 l 178.45,178.45 v 137.05 c 4.12,2.25 8.23,4.86 11.72,8.35 8.86,8.98 13.84,20.95 13.84,33.54 0,12.73 -4.98,24.7 -13.84,33.68 -8.98,8.97 -21.29,13.46 -33.61,13.46 -12.31,0 -24.62,-4.49 -33.6,-13.46 -18.46,-18.59 -18.46,-48.64 0,-67.22 3.99,-3.99 8.6,-6.99 13.46,-9.23 v -118.84 l -178.44,-178.45 v -165.73 l -64.1,-64.22 c -141.79,226.09 -156.75,467.39 -156.75,558.29 -0.13,20.71 16.21,37.42 36.78,38.54 233.32,12.72 363.39,146.89 418.13,221.35 7.73,10.59 19.45,15.89 31.18,15.89 11.72,0 23.44,-5.3 31.17,-15.89 54.75,-74.46 184.69,-208.63 418.13,-221.35 20.57,-1.12 36.79,-17.83 36.79,-38.54 v 0 c 0,20.71 -16.22,37.42 -36.79,38.54 -233.44,12.72 -363.38,146.89 -418.13,221.35 28.81,-80.56 101.63,-138.55 173.59,-184.69 64.47,-41.4 138.04,-68.34 213.86,-78.81 15.34,-2 26.81,-15.21 26.69,-30.56 -2,-237.3 -81.18,-473.36 -223.34,-663.29 v 0 c -59.61,-63.22 -132.56,-122.08 -221.97,-172.091"
         id="path1283" />
    </clipPath>
    <linearGradient
       x1="0"
       y1="0"
       x2="1"
       y2="0"
       gradientUnits="userSpaceOnUse"
       gradientTransform="matrix(-859.624,-843.197,-843.197,859.624,1971.71,2104.84)"
       spreadMethod="pad"
       id="linearGradient1291">
      <stop
         style="stop-opacity:1;stop-color:#13ac4a"
         offset="0"
         id="stop1287" />
      <stop
         style="stop-opacity:1;stop-color:#2d71c2"
         offset="1"
         id="stop1289" />
    </linearGradient>
    <clipPath
       clipPathUnits="userSpaceOnUse"
       id="clipPath1301">
      <path
         d="m 1738.01,1711.78 c 9.1,9.11 9.1,23.9 0,33.01 -4.55,4.55 -10.52,6.83 -16.49,6.83 -5.98,0 -11.96,-2.28 -16.51,-6.83 -9.09,-9.11 -9.1,-23.9 0,-33.01 9.1,-9.09 23.91,-9.09 33,0 z"
         id="path1299" />
    </clipPath>
    <linearGradient
       x1="0"
       y1="0"
       x2="1"
       y2="0"
       gradientUnits="userSpaceOnUse"
       gradientTransform="matrix(-756.997,-742.532,-742.532,756.997,1999.59,2001.05)"
       spreadMethod="pad"
       id="linearGradient1307">
      <stop
         style="stop-opacity:1;stop-color:#13ac4a"
         offset="0"
         id="stop1303" />
      <stop
         style="stop-opacity:1;stop-color:#2d71c2"
         offset="1"
         id="stop1305" />
    </linearGradient>
    <clipPath
       clipPathUnits="userSpaceOnUse"
       id="clipPath1317">
      <path
         d="m 1465.39,1864.06 c 4.44,4.43 6.88,10.34 6.88,16.62 0,6.28 -2.44,12.18 -6.88,16.62 -4.45,4.44 -10.34,6.9 -16.62,6.9 -6.28,0 -12.18,-2.46 -16.62,-6.9 -9.17,-9.17 -9.17,-24.08 0,-33.24 2.21,-2.21 4.77,-3.86 7.49,-5 6.09,-1.61 12.17,-1.61 18.26,0 2.72,1.14 5.28,2.79 7.49,5 z"
         id="path1315" />
    </clipPath>
    <linearGradient
       x1="0"
       y1="0"
       x2="1"
       y2="0"
       gradientUnits="userSpaceOnUse"
       gradientTransform="matrix(-762.528,-747.957,-747.957,762.528,1784.62,2210.11)"
       spreadMethod="pad"
       id="linearGradient1323">
      <stop
         style="stop-opacity:1;stop-color:#13ac4a"
         offset="0"
         id="stop1319" />
      <stop
         style="stop-opacity:1;stop-color:#2d71c2"
         offset="1"
         id="stop1321" />
    </linearGradient>
    <clipPath
       clipPathUnits="userSpaceOnUse"
       id="clipPath1333">
      <path
         d="m 1737.42,1171.4 c 142.16,189.93 221.34,425.99 223.34,663.29 0.12,15.35 -11.35,28.56 -26.69,30.56 -75.82,10.47 -149.39,37.41 -213.86,78.81 -71.96,46.14 -144.78,104.13 -173.59,184.69 54.75,-74.46 184.69,-208.63 418.13,-221.35 20.57,-1.12 36.79,-17.83 36.79,-38.54 0,-110.1 -21.7,-440.44 -264.12,-697.46"
         id="path1331" />
    </clipPath>
    <linearGradient
       x1="0"
       y1="0"
       x2="1"
       y2="0"
       gradientUnits="userSpaceOnUse"
       gradientTransform="matrix(97.340485,0,0,-97.340485,173.3978,296.28186)"
       spreadMethod="pad"
       id="linearGradient903">
      <stop
         style="stop-opacity:1;stop-color:#8a0bff"
         offset="0"
         id="stop897" />
      <stop
         style="stop-opacity:1;stop-color:#2a0056"
         offset="0.999706"
         id="stop899" />
      <stop
         style="stop-opacity:1;stop-color:#2a0056"
         offset="1"
         id="stop901" />
    </linearGradient>
    <linearGradient
       x1="0"
       y1="0"
       x2="1"
       y2="0"
       gradientUnits="userSpaceOnUse"
       gradientTransform="matrix(0,159.06149,159.06149,0,236.49153,210.42419)"
       spreadMethod="pad"
       id="linearGradient925">
      <stop
         style="stop-opacity:1;stop-color:#a553ff"
         offset="0"
         id="stop919" />
      <stop
         style="stop-opacity:1;stop-color:#ae38ff"
         offset="0.999412"
         id="stop921" />
      <stop
         style="stop-opacity:1;stop-color:#ae38ff"
         offset="1"
         id="stop923-3" />
    </linearGradient>
    <clipPath
       clipPathUnits="userSpaceOnUse"
       id="clipPath935">
      <path
         d="M 0,500 H 500 V 0 H 0 Z"
         id="path933" />
    </clipPath>
    <clipPath
       clipPathUnits="userSpaceOnUse"
       id="clipPath943">
      <path
         d="m 202.245,369.486 h 68.493 V 210.424 h -68.493 z"
         id="path941" />
    </clipPath>
    <clipPath
       clipPathUnits="userSpaceOnUse"
       id="clipPath947">
      <path
         d="m 222.133,369.486 c 22.998,-44.964 24.793,-67.8 8.959,-100.142 l -28.847,-58.92 h 33.965 c 5.078,0 9.713,2.892 11.946,7.453 l 20.328,41.52 c 3.066,6.261 3.001,13.601 -0.173,19.808 z"
         id="path945" />
    </clipPath>
    <mask
       maskUnits="userSpaceOnUse"
       x="0"
       y="0"
       width="1"
       height="1"
       id="mask961">
      <g
         id="g971">
        <g
           id="g969">
          <g
             id="g967">
            <g
               id="g965">
              <path
                 d="M -32768,32767 H 32767 V -32768 H -32768 Z"
                 style="fill:url(#linearGradient959);stroke:none"
                 id="path963-6" />
            </g>
          </g>
        </g>
      </g>
    </mask>
    <linearGradient
       x1="0"
       y1="0"
       x2="1"
       y2="0"
       gradientUnits="userSpaceOnUse"
       gradientTransform="matrix(65.162682,-21.099607,-21.099607,-65.162682,229.22533,284.43851)"
       spreadMethod="pad"
       id="linearGradient959">
      <stop
         style="stop-opacity:1;stop-color:#ffffff"
         offset="0"
         id="stop953-7" />
      <stop
         style="stop-opacity:0;stop-color:#ffffff"
         offset="0.74333968"
         id="stop955" />
      <stop
         style="stop-opacity:0;stop-color:#ffffff"
         offset="1"
         id="stop957" />
    </linearGradient>
    <linearGradient
       x1="0"
       y1="0"
       x2="1"
       y2="0"
       gradientUnits="userSpaceOnUse"
       gradientTransform="matrix(65.162682,-21.099607,-21.099607,-65.162682,229.22533,284.43851)"
       spreadMethod="pad"
       id="linearGradient979">
      <stop
         style="stop-opacity:1;stop-color:#af53ff"
         offset="0"
         id="stop973" />
      <stop
         style="stop-opacity:1;stop-color:#ae38ff"
         offset="0.74333968"
         id="stop975" />
      <stop
         style="stop-opacity:1;stop-color:#ae38ff"
         offset="1"
         id="stop977" />
    </linearGradient>
    <clipPath
       clipPathUnits="userSpaceOnUse"
       id="clipPath1005">
      <path
         d="m 220.157,304.677 h 50.581 v -94.253 h -50.581 z"
         id="path1003" />
    </clipPath>
    <clipPath
       clipPathUnits="userSpaceOnUse"
       id="clipPath1009-5">
      <path
         d="m 268.311,279.205 -13.029,25.472 c 0.89,-14.593 -2.638,-27.899 -10.217,-43.378 l -24.907,-50.875 h 16.052 c 5.078,0 9.713,2.892 11.946,7.453 l 20.328,41.52 c 3.066,6.261 3.001,13.601 -0.173,19.808"
         id="path1007-3" />
    </clipPath>
    <mask
       maskUnits="userSpaceOnUse"
       x="0"
       y="0"
       width="1"
       height="1"
       id="mask1023">
      <g
         id="g1033">
        <g
           id="g1031">
          <g
             id="g1029">
            <g
               id="g1027">
              <path
                 d="M -32768,32767 H 32767 V -32768 H -32768 Z"
                 style="fill:url(#linearGradient1021);stroke:none"
                 id="path1025" />
            </g>
          </g>
        </g>
      </g>
    </mask>
    <linearGradient
       x1="0"
       y1="0"
       x2="1"
       y2="0"
       gradientUnits="userSpaceOnUse"
       gradientTransform="matrix(86.362465,-42.485489,-42.485489,-86.362465,186.51953,282.73804)"
       spreadMethod="pad"
       id="linearGradient1021">
      <stop
         style="stop-opacity:1;stop-color:#ffffff"
         offset="0"
         id="stop1015" />
      <stop
         style="stop-opacity:0;stop-color:#ffffff"
         offset="0.999411"
         id="stop1017" />
      <stop
         style="stop-opacity:0;stop-color:#ffffff"
         offset="1"
         id="stop1019" />
    </linearGradient>
    <linearGradient
       x1="0"
       y1="0"
       x2="1"
       y2="0"
       gradientUnits="userSpaceOnUse"
       gradientTransform="matrix(86.362465,-42.485489,-42.485489,-86.362465,186.51953,282.73804)"
       spreadMethod="pad"
       id="linearGradient1041">
      <stop
         style="stop-opacity:1;stop-color:#8a0bff"
         offset="0"
         id="stop1035" />
      <stop
         style="stop-opacity:1;stop-color:#2a0056"
         offset="0.999411"
         id="stop1037" />
      <stop
         style="stop-opacity:1;stop-color:#2a0056"
         offset="1"
         id="stop1039" />
    </linearGradient>
    <linearGradient
       x1="0"
       y1="0"
       x2="1"
       y2="0"
       gradientUnits="userSpaceOnUse"
       gradientTransform="matrix(68.493469,0,0,-68.493469,258.1087,333.67465)"
       spreadMethod="pad"
       id="linearGradient1077">
      <stop
         style="stop-opacity:1;stop-color:#ff2bcb"
         offset="0"
         id="stop1073" />
      <stop
         style="stop-opacity:1;stop-color:#df38ff"
         offset="1"
         id="stop1075" />
    </linearGradient>
    <clipPath
       clipPathUnits="userSpaceOnUse"
       id="clipPath1087">
      <path
         d="M 0,500 H 500 V 0 H 0 Z"
         id="path1085" />
    </clipPath>
    <clipPath
       clipPathUnits="userSpaceOnUse"
       id="clipPath1095">
      <path
         d="m 258.109,384.243 h 52.669 v -85.329 h -52.669 z"
         id="path1093" />
    </clipPath>
    <clipPath
       clipPathUnits="userSpaceOnUse"
       id="clipPath1099">
      <path
         d="m 310.778,384.243 h -18.141 c -5.078,0 -9.713,-2.892 -11.946,-7.453 l -20.328,-41.52 c -3.066,-6.261 -3.001,-13.601 0.173,-19.808 l 8.465,-16.548 z"
         id="path1097" />
    </clipPath>
    <mask
       maskUnits="userSpaceOnUse"
       x="0"
       y="0"
       width="1"
       height="1"
       id="mask1113">
      <g
         id="g1123">
        <g
           id="g1121">
          <g
             id="g1119">
            <g
               id="g1117">
              <path
                 d="M -32768,32767 H 32767 V -32768 H -32768 Z"
                 style="fill:url(#linearGradient1111);stroke:none"
                 id="path1115" />
            </g>
          </g>
        </g>
      </g>
    </mask>
    <linearGradient
       x1="0"
       y1="0"
       x2="1"
       y2="0"
       gradientUnits="userSpaceOnUse"
       gradientTransform="matrix(52.669075,0,0,-52.669075,258.1087,341.57825)"
       spreadMethod="pad"
       id="linearGradient1111">
      <stop
         style="stop-opacity:1;stop-color:#ffffff"
         offset="0"
         id="stop1105" />
      <stop
         style="stop-opacity:0;stop-color:#ffffff"
         offset="0.999411"
         id="stop1107" />
      <stop
         style="stop-opacity:0;stop-color:#ffffff"
         offset="1"
         id="stop1109" />
    </linearGradient>
    <linearGradient
       x1="0"
       y1="0"
       x2="1"
       y2="0"
       gradientUnits="userSpaceOnUse"
       gradientTransform="matrix(52.669075,0,0,-52.669075,258.1087,341.57825)"
       spreadMethod="pad"
       id="linearGradient1131-5">
      <stop
         style="stop-opacity:1;stop-color:#8a0bff"
         offset="0"
         id="stop1125" />
      <stop
         style="stop-opacity:1;stop-color:#2a0056"
         offset="0.999411"
         id="stop1127-6" />
      <stop
         style="stop-opacity:1;stop-color:#2a0056"
         offset="1"
         id="stop1129-2" />
    </linearGradient>
  </defs>
  <g
     inkscape:label="Layer 1"
     inkscape:groupmode="layer"
     id="layer1">
    <rect
       id="rect6823"
       width="87.428604"
       height="62.32502"
       x="41.230053"
       y="154.86749"
       style="stroke-width:0.264583;fill:none" />
    <path
       d="M 26.954019,77.623251 H 93.905833 V 23.229891 H 26.954019 Z"
       style="fill:#172441;fill-opacity:1;fill-rule:nonzero;stroke:none;stroke-width:0.00985458"
       id="path841" />
    <g
       id="g10659"
       transform="matrix(0.60167044,0,0,0.60167044,59.91479,2.5906099)"
       inkscape:export-filename="/home/rob/Downloads/yormy.png"
       inkscape:export-xdpi="297.50165"
       inkscape:export-ydpi="297.50165">
      <g
         id="g12227">
        <g
           id="g1251"
           transform="matrix(0.3527778,0,0,-0.352778,58.048755,138.74146)"
           style="fill:#ffffff;stroke:#172441;stroke-opacity:1">
          <text
             transform="matrix(1,0,0,-1,76.1453,59.516)"
             style="font-variant:normal;font-weight:900;font-size:23.4635px;font-family:Montserrat;-inkscape-font-specification:Montserrat-Black;writing-mode:lr-tb;fill:#ffffff;fill-opacity:1;fill-rule:nonzero;stroke:#172441;stroke-opacity:1"
             id="text1255"><tspan
               sodipodi:role="line"
               id="tspan1253"
               x="0"
               y="0">YORMY</tspan></text>
        </g>
        <text
           style="font-variant:normal;font-weight:normal;font-size:3.37431px;font-family:Montserrat;-inkscape-font-specification:Montserrat-Regular;writing-mode:lr-tb;fill:#5bc7b4;fill-opacity:1;fill-rule:nonzero;stroke:none;stroke-width:0.397245"
           id="text1261-74-8"
           x="75.316353"
           y="138.48743"
           transform="scale(1.1260477,0.88806187)"><tspan
             sodipodi:role="line"
             id="tspan1259-1-5"
             x="75.316353"
             y="138.48743"
             style="stroke-width:0.397245">GOOD SOFTWARE</tspan></text>
      </g>
    </g>
    <g
       id="g1283"
       transform="matrix(0.12738086,0,0,-0.12738086,89.240989,94.822062)"
       inkscape:export-filename="/home/rob/Downloads/yormy.png"
       inkscape:export-xdpi="297.50165"
       inkscape:export-ydpi="297.50165">
      <g
         id="g885">
        <g
           id="g887">
          <g
             id="g893">
            <g
               id="g895">
              <path
                 d="m 173.398,382.139 57.694,-112.795 -28.848,-58.92 h 33.966 c 5.078,0 9.713,2.891 11.946,7.452 v 0 l 20.328,41.521 c 3.066,6.261 3.001,13.601 -0.173,19.807 v 0 l -46.178,90.282 c -3.973,7.766 -11.961,12.653 -20.686,12.653 v 0 z"
                 style="fill:url(#linearGradient903);stroke:none"
                 id="path905" />
            </g>
          </g>
        </g>
      </g>
      <g
         id="g907">
        <g
           id="g909">
          <g
             id="g915">
            <g
               id="g917">
              <path
                 d="m 231.092,269.344 -28.848,-58.92 h 33.966 c 5.078,0 9.713,2.891 11.946,7.452 v 0 l 20.328,41.521 c 3.066,6.261 3.001,13.601 -0.173,19.807 v 0 l -46.178,90.282 c 22.998,-44.964 24.794,-67.8 8.959,-100.142"
                 style="fill:url(#linearGradient925);stroke:none"
                 id="path927" />
            </g>
          </g>
        </g>
      </g>
      <g
         id="g929">
        <g
           id="g931"
           clip-path="url(#clipPath935)">
          <g
             id="g937">
            <g
               id="g939" />
            <g
               id="g997">
              <g
                 clip-path="url(#clipPath943)"
                 id="g995">
                <g
                   id="g993">
                  <g
                     clip-path="url(#clipPath947)"
                     id="g991">
                    <g
                       id="g989">
                      <g
                         id="g981" />
                      <g
                         mask="url(#mask961)"
                         id="g987">
                        <g
                           id="g985">
                          <path
                             d="m 222.133,369.486 c 22.998,-44.964 24.793,-67.8 8.959,-100.142 l -28.847,-58.92 h 33.965 c 5.078,0 9.713,2.892 11.946,7.453 l 20.328,41.52 c 3.066,6.261 3.001,13.601 -0.173,19.808 z"
                             style="fill:url(#linearGradient979);stroke:none"
                             id="path983" />
                        </g>
                      </g>
                    </g>
                  </g>
                </g>
              </g>
            </g>
          </g>
          <g
             id="g999">
            <g
               id="g1001" />
            <g
               id="g1059">
              <g
                 clip-path="url(#clipPath1005)"
                 opacity="0.419998"
                 id="g1057">
                <g
                   id="g1055">
                  <g
                     clip-path="url(#clipPath1009-5)"
                     id="g1053">
                    <g
                       id="g1051">
                      <g
                         id="g1043" />
                      <g
                         mask="url(#mask1023)"
                         id="g1049">
                        <g
                           id="g1047">
                          <path
                             d="m 268.311,279.205 -13.029,25.472 c 0.89,-14.593 -2.638,-27.899 -10.217,-43.378 l -24.907,-50.875 h 16.052 c 5.078,0 9.713,2.892 11.946,7.453 l 20.328,41.52 c 3.066,6.261 3.001,13.601 -0.173,19.808"
                             style="fill:url(#linearGradient1041);stroke:none"
                             id="path1045" />
                        </g>
                      </g>
                    </g>
                  </g>
                </g>
              </g>
            </g>
          </g>
        </g>
      </g>
      <g
         id="g1061">
        <g
           id="g1063">
          <g
             id="g1069">
            <g
               id="g1071">
              <path
                 d="m 292.638,384.243 c -5.079,0 -9.714,-2.891 -11.947,-7.453 v 0 l -20.328,-41.519 c -3.066,-6.262 -3.002,-13.602 0.173,-19.808 v 0 l 16.551,-32.356 49.515,101.136 z"
                 style="fill:url(#linearGradient1077);stroke:none"
                 id="path1079" />
            </g>
          </g>
        </g>
      </g>
      <g
         id="g1081">
        <g
           id="g1083"
           clip-path="url(#clipPath1087)">
          <g
             id="g1089">
            <g
               id="g1091" />
            <g
               id="g1149">
              <g
                 clip-path="url(#clipPath1095)"
                 opacity="0.320007"
                 id="g1147">
                <g
                   id="g1145">
                  <g
                     clip-path="url(#clipPath1099)"
                     id="g1143">
                    <g
                       id="g1141">
                      <g
                         id="g1133" />
                      <g
                         mask="url(#mask1113)"
                         id="g1139">
                        <g
                           id="g1137">
                          <path
                             d="m 310.778,384.243 h -18.141 c -5.078,0 -9.713,-2.892 -11.946,-7.453 l -20.328,-41.52 c -3.066,-6.261 -3.001,-13.601 0.173,-19.808 l 8.465,-16.548 z"
                             style="fill:url(#linearGradient1131-5);stroke:none"
                             id="path1135" />
                        </g>
                      </g>
                    </g>
                  </g>
                </g>
              </g>
            </g>
          </g>
        </g>
      </g>
    </g>
  </g>
</svg>
